<svg width="12" height="26" viewBox="0 0 12 26" fill="none" xmlns="http://www.w3.org/2000/svg">
<path d="M4.16607 17.305C4.07278 17.2829 3.99486 17.2645 3.88671 17.2388C3.76061 17.1122 3.60785 16.9651 3.46228 16.8119C3.3777 16.7227 3.27518 16.6345 3.23263 16.5253C3.14088 16.2895 2.983 16.0988 2.8446 15.8969C2.64776 15.6093 2.42529 15.3397 2.21718 15.0598C1.92397 14.6651 1.54055 14.356 1.20634 14.0003C1.0869 13.8731 0.950039 13.7624 0.863922 13.6066C0.836755 13.5579 0.806512 13.5107 0.773193 13.4559C0.869049 13.36 0.962341 13.2503 1.07255 13.1616C1.17917 13.0755 1.21403 12.9223 1.37293 12.8807C2.43811 13.7255 3.32336 14.7569 4.09533 15.9102C4.26141 15.6744 4.43467 15.496 4.64125 15.3386C4.8022 15.2156 4.97033 15.0782 5.0626 14.8809C5.07285 14.8594 5.09797 14.845 5.1154 14.8261C5.40399 14.5211 5.68746 14.2104 5.98271 13.9116C6.22517 13.6666 6.42252 13.3923 6.58604 13.0899C6.75417 12.7793 6.94947 12.486 7.17142 12.2108C7.44618 11.8709 7.72093 11.5316 8.01567 11.2081C8.25249 10.9477 8.46932 10.6689 8.68358 10.3895C8.84403 10.1804 9.02139 9.98509 9.1849 9.78005C9.43454 9.46685 9.71647 9.18492 9.97738 8.88403C10.1701 8.66208 10.3798 8.45857 10.5884 8.23047C10.8006 8.38732 11.0128 8.54367 11.2107 8.68976C11.283 8.86455 11.161 8.96399 11.0861 9.05319C10.8519 9.33255 10.6309 9.62217 10.3762 9.88616C10.124 10.1476 9.87691 10.4193 9.65342 10.7063C9.44428 10.9749 9.20182 11.2189 9.03318 11.5183C9.02497 11.5326 9.01062 11.5429 8.99986 11.5552C8.84967 11.7223 8.69537 11.8863 8.5498 12.0575C8.28837 12.364 8.02233 12.668 7.77731 12.9874C7.64814 13.1555 7.55638 13.3528 7.45284 13.5399C7.31239 13.7942 7.13401 14.0213 6.9628 14.255C6.63986 14.6959 6.24414 15.069 5.86276 15.4565C5.76486 15.556 5.68131 15.6703 5.59058 15.7769C5.50548 15.8769 5.39681 15.9538 5.33274 16.0773C5.29942 16.1419 5.19998 16.1685 5.14462 16.226C4.89703 16.4828 4.61664 16.7083 4.43518 17.0266C4.37419 17.1332 4.25936 17.2096 4.16504 17.3039L4.16607 17.305Z" fill="black" stroke="white" stroke-linejoin="round"></path>
</svg>